<?xml version="1.0" encoding="UTF-8" standalone="no"?>
<svg
   xmlns:dc="http://purl.org/dc/elements/1.1/"
   xmlns:cc="http://creativecommons.org/ns#"
   xmlns:rdf="http://www.w3.org/1999/02/22-rdf-syntax-ns#"
   xmlns:svg="http://www.w3.org/2000/svg"
   xmlns="http://www.w3.org/2000/svg"
   xmlns:sodipodi="http://sodipodi.sourceforge.net/DTD/sodipodi-0.dtd"
   xmlns:inkscape="http://www.inkscape.org/namespaces/inkscape"
   width="210mm"
   height="297mm"
   viewBox="0 0 210 297"
   version="1.1"
   id="svg94"
   inkscape:version="1.0.2 (e86c870879, 2021-01-15)"
   sodipodi:docname="06.svg">
  <defs
     id="defs88" />
  <sodipodi:namedview
     id="base"
     pagecolor="#ffffff"
     bordercolor="#666666"
     borderopacity="1.0"
     inkscape:pageopacity="0.0"
     inkscape:pageshadow="2"
     inkscape:zoom="0.35"
     inkscape:cx="400"
     inkscape:cy="557.14286"
     inkscape:document-units="mm"
     inkscape:current-layer="layer1"
     inkscape:document-rotation="0"
     showgrid="false"
     inkscape:window-width="1876"
     inkscape:window-height="1051"
     inkscape:window-x="44"
     inkscape:window-y="0"
     inkscape:window-maximized="1" />
  <metadata
     id="metadata91">
    <rdf:RDF>
      <cc:Work
         rdf:about="">
        <dc:format>image/svg+xml</dc:format>
        <dc:type
           rdf:resource="http://purl.org/dc/dcmitype/StillImage" />
        <dc:title></dc:title>
      </cc:Work>
    </rdf:RDF>
  </metadata>
  <g
     inkscape:label="Layer 1"
     inkscape:groupmode="layer"
     id="layer1">
    <path
       sodipodi:type="spiral"
       style="fill:none;fill-rule:evenodd;stroke:#000000;stroke-width:0.264583"
       id="path96"
       sodipodi:cx="97.711922"
       sodipodi:cy="149.4008"
       sodipodi:expansion="1"
       sodipodi:revolution="9.796526"
       sodipodi:radius="298.38074"
       sodipodi:argument="-17.995794"
       sodipodi:t0="0"
       d="m 97.711922,149.4008 c 3.010628,3.45321 -3.169514,5.76195 -5.739453,5.00386 -6.964373,-2.05439 -7.481007,-11.19043 -4.26826,-16.48276 5.746851,-9.46674 19.003911,-9.71415 27.226071,-3.53267 12.06635,9.07158 12.02186,26.92643 2.79707,37.96938 -12.2952,14.71853 -34.888034,14.36186 -48.71269,2.06147 -17.396919,-15.47878 -16.718656,-42.86837 -1.325876,-59.45599 18.642719,-20.089834 50.859286,-19.085201 70.199306,-0.59028 22.79154,21.79562 21.45786,58.85679 -0.14532,80.94261 -24.94173,25.49895 -66.858698,23.83462 -91.68592,-0.88091 C 17.846584,166.35215 19.842626,119.57181 47.673359,92.006279 78.895235,61.081917 130.54431,63.410375 160.8459,94.358383 194.48641,128.71654 191.82503,185.23828 157.7582,218.27423 120.26543,254.63244 58.86805,251.63779 23.099041,214.45093 -15.978083,173.82484 -12.649867,107.5495 27.657934,69.048469 71.416363,27.251478 142.57147,30.913463 183.80371,74.342958 228.32133,121.23293 224.32542,197.26928 177.77362,241.23204 127.75276,288.47093 46.833963,284.14095 0.14123147,234.46636 -49.819443,181.31513 -45.155285,95.5129 7.6425085,46.09066 63.923658,-6.5922325 154.61016,-1.593814 206.76152,54.327533 262.16699,113.73824 256.83424,209.30971 197.78905,264.18985 135.2491,322.31823 34.792064,316.65108 -22.816578,254.48178 -83.668121,188.81286 -77.666529,83.469746 -12.372917,23.132851 56.424752,-40.442093 166.65439,-34.10601 229.71933,34.312108 296.01787,106.23832 289.34726,221.35488 217.80447,287.14766 142.74989,356.16999 22.74608,349.16481 -45.774387,274.49721 -117.52065,196.31441 -110.18089,71.423046 -32.388342,0.1750411 48.922534,-74.2953 178.70172,-66.620924 252.67714,14.296683 329.87168,98.735517 321.86266,233.40277 237.8199,310.10547 150.25321,390.02432 10.69769,381.68065 -68.732197,294.51263 -151.37546,203.81819 -142.69711,59.37421 -52.403767,-22.782768 41.418341,-108.15053 190.75096,-99.137496 275.63495,-5.7187422 363.72728,91.230956 354.37955,245.45237 257.83532,333.06328 157.75811,423.88027 -1.3522352,414.19782 -91.690006,314.52806 -185.23172,211.32339 -175.21454,47.323988 -72.419192,-45.740578 33.912875,-142.00707 202.80145,-131.65515 298.59275,-25.734167 397.58408,83.725243 386.89742,257.5031 277.85075,356.02109 165.26404,457.73731 -13.4032,446.71588 -114.64782,334.54349 -219.08897,218.82953 -207.73278,35.272816 -92.434617,-68.698387 26.406542,-175.86452 214.85282,-164.17356 321.55056,-45.749593 c 19.42251,21.557066 35.65047,45.96225396 48.03424,72.202421" />
  </g>
</svg>
